<svg viewBox="0 0 24 24" fill="none" xmlns="http://www.w3.org/2000/svg">
  <path d="M22.2819 9.8211C22.9255 10.9391 23.2825 12.2311 23.2825 13.5701C23.2825 15.5381 22.4965 17.3771 21.1175 18.7561C19.7385 20.1351 17.8995 20.9211 15.9315 20.9211C14.5925 20.9211 13.3005 20.5641 12.1825 19.9205L11.9995 19.8195L11.8165 19.9205C10.6985 20.5641 9.40651 20.9211 8.06751 20.9211C6.09951 20.9211 4.26051 20.1351 2.88151 18.7561C1.50251 17.3771 0.716511 15.5381 0.716511 13.5701C0.716511 12.2311 1.07351 10.9391 1.71751 9.8211L1.81851 9.6381L1.71751 9.4551C1.07351 8.3371 0.716511 7.0451 0.716511 5.7061C0.716511 3.7381 1.50251 1.8991 2.88151 0.5201C4.26051 -0.8589 6.09951 -1.6449 8.06751 -1.6449C9.40651 -1.6449 10.6985 -1.2879 11.8165 -0.6443L11.9995 -0.5433L12.1825 -0.6443C13.3005 -1.2879 14.5925 -1.6449 15.9315 -1.6449C17.8995 -1.6449 19.7385 -0.8589 21.1175 0.5201C22.4965 1.8991 23.2825 3.7381 23.2825 5.7061C23.2825 7.0451 22.9255 8.3371 22.2819 9.4551L22.1809 9.6381L22.2819 9.8211Z" fill="#00adb5"/>
</svg>
